# AST/ASF file generated using VICON BodyLanguage
# -----------------------------------------------
:version 1.10
:name VICON
:units
  mass 1.0
  length 0.45
  angle deg
:documentation
   .ast/.asf automatically generated from VICON data using
   VICON BodyBuilder and BodyLanguage model FoxedUp or BRILLIANT.MOD
:root
   order TX TY TZ RX RY RZ
   axis XYZ
   position 0 0 0  
   orientation 0 0 0 
:bonedata
  begin
     id 1 
     name lhipjoint
     direction 0.523584 -0.783993 0.333487 
     length 2.44404 
     axis 0 0 0  XYZ
  end
  begin
     id 2 
     name lfemur
     direction 0.34202 -0.939693 0  
     length 7.29523  
     axis 0 0 20  XYZ
    dof rx ry rz
    limits (-160.0 20.0)
           (-70.0 70.0)
           (-60.0 70.0)
  end
  begin
     id 3 
     name ltibia
     direction 0.34215 -0.939645 0   
     length 7.81194   
     axis 0 0 20   XYZ
    dof rx
    limits (-10.0 170.0)
  end
  begin
     id 4 
     name lfoot
     direction 0.0941847 -0.25877 0.961336   
     length 2.41437   
     axis -90 7.62852e-016 20   XYZ
    dof rx rz
    limits (-45.0 90.0)
           (-70.0 20.0)
  end
  begin
     id 5 
     name ltoes
     direction 1.53526e-011 -4.21768e-011 1   
     length 1.2048   
     axis -90 7.62852e-016 20   XYZ
    dof rx
    limits (-90.0 20.0)
  end
  begin
     id 6 
     name rhipjoint
     direction -0.46599 -0.814191 0.346332   
     length 2.35339  
     axis 0 0 0  XYZ 
  end
  begin
     id 7 
     name rfemur
     direction -0.34202 -0.939693 0   
     length 7.34966   
     axis 0 0 -20   XYZ
    dof rx ry rz
    limits (-160.0 20.0)
           (-70.0 70.0)
           (-70.0 60.0)
  end
  begin
     id 8 
     name rtibia
     direction -0.34202 -0.939693 0   
     length 7.89934   
     axis 0 0 -20   XYZ
    dof rx
    limits (-10.0 170.0)
 end
 begin
     id 9 
     name rfoot
     direction -0.0975468 -0.268008 0.958466   
     length 2.27725  
     axis -90 -7.62852e-016 -20   XYZ
    dof rx rz
    limits (-45.0 90.0)
           (-20.0 70.0)
  end
  begin
     id 10 
     name rtoes
     direction -1.53563e-011 -4.22022e-011 1   
     length 1.13683   
     axis -90 -7.62852e-016 -20   XYZ
    dof rx
    limits (-90.0 20.0)
  end
  begin
     id 11 
     name lowerback
     direction -0.00456414 0.999242 -0.0386661   
     length 2.16968   
     axis 0 0 0   XYZ
    dof rx ry rz
    limits (-20.0 45.0)
           (-30.0 30.0)
           (-30.0 30.0)
  end
  begin
     id 12 
     name upperback
     direction 0.0297078 0.998988 0.0337799   
     length 2.15674   
     axis 0 0 0   XYZ
    dof rx ry rz
    limits (-20.0 45.0)
           (-30.0 30.0)
           (-30.0 30.0)
  end
  begin
     id 13 
     name thorax
     direction 0.0309305 0.998202 0.0513506   
     length 2.16319   
     axis 0 0 0   XYZ
    dof rx ry rz
    limits (-20.0 45.0)
           (-30.0 30.0)
           (-30.0 30.0)
  end
  begin
     id 14 
     name lowerneck
     direction -0.103039 0.983474 0.148872   
     length 1.64318   
     axis 0 0 0   XYZ
    dof rx ry rz
    limits (-20.0 45.0)
           (-30.0 30.0)
           (-30.0 30.0)
  end
  begin
     id 15 
     name upperneck
     direction 0.128124 0.971079 -0.201469   
     length 1.68242   
     axis 0 0 0   XYZ
    dof rx ry rz
    limits (-20.0 45.0)
           (-30.0 30.0)
           (-30.0 30.0)
  end
  begin
     id 16
     name head
     direction 0.0496365 0.994919 -0.0875941  
     length 1.70108  
     axis 0 0 0   XYZ
    dof rx ry rz
    limits (-20.0 45.0)
           (-30.0 30.0)
           (-30.0 30.0)
  end
  begin
     id 17 
     name lclavicle
     direction 0.887148 0.430222 -0.166967  
     length 3.25763  
     axis 0 0 0   XYZ
    dof ry rz
    limits (-20.0 10.0)
           (0.0 20.0)
  end
  begin
     id 18 
     name lhumerus
     direction 1 -4.48962e-011 1.92156e-027   
     length 5.10755   
     axis 180 -30 -90   XYZ
    dof rx ry rz
    limits (-60.0 90.0)
           (-90.0 90.0)
           (-90.0 90.0)
  end
  begin
     id 19
     name lradius
     direction 1 -4.48958e-011 7.10963e-027   
     length 3.36253   
     axis 180 -30 -90   XYZ
    dof rx
    limits (-10.0 170.0)
  end
  begin
     id 20
     name lwrist
     direction 1 -4.48946e-011 1.82396e-026   
     length 1.68127   
     axis -1.15222e-014 90 90   XYZ
    dof ry
    limits (-180.0 0.0)
 end
  begin
     id 21 
     name lhand
     direction 1 -4.48919e-011 3.64759e-026   
     length 0.619088   
     axis -2.32787e-014 90 90   XYZ
    dof rx rz
    limits (-90.0 90.0)
           (-45.0 45.0)
  end
  begin
     id 22 
     name lfingers
     direction 1 -4.49012e-011 7.29744e-026   
     length 0.499125   
     axis -4.6558e-014 90 90   XYZ
    dof rx
    limits (0.0 90.0)
  end
  begin
     id 23
     name lthumb
     direction 0.707107 -6.35028e-011 0.707107   
     length 0.716646   
     axis -90 45 3.78391e-014   XYZ
    dof rx rz
    limits (-45.0 45.0)
           (-45.0 45.0)
  end
  begin
     id 24 
     name rclavicle
     direction -0.82886 0.533198 -0.169384   
     length 3.20647  
     axis 0 0 0   XYZ 
    dof ry rz
    limits (-10.0 20.0)
           (-20.0 0.0)
  end
  begin
     id 25 
     name rhumerus
     direction -1 -4.48973e-011 3.06863e-027  
     length 5.27387   
     axis 180 30 90   XYZ
    dof rx ry rz
    limits (-90.0 60.0)
           (-90.0 90.0)
           (-90.0 90.0)
  end
  begin
     id 26 
     name rradius
     direction -1 -4.48988e-011 9.4797e-027   
     length 3.40144   
     axis 180 30 90   XYZ
    dof rx
    limits (-10.0 170.0)
  end
  begin
     id 27 
     name rwrist
     direction -1 -4.48897e-011 1.82366e-026   
     length 1.70072   
     axis -1.15222e-014 -90 -90   XYZ
    dof ry
    limits (-180.0 0.0)
  end
  begin
     id 28
     name rhand
     direction -1 -4.48965e-011 3.64815e-026   
     length 0.742821   
     axis -2.32787e-014 -90 -90   XYZ
    dof rx rz
    limits (-90.0 90.0)
           (-45.0 45.0)
  end
  begin
     id 29
     name rfingers
     direction -1 -4.49016e-011 7.29754e-026   
     length 0.598881   
     axis -4.6558e-014 -90 -90   XYZ
    dof rx
    limits (0.0 90.0)
  end
  begin
     id 30
     name rthumb
     direction -0.707107 -6.3488e-011 0.707107   
     length 0.859877   
     axis -90 -45 -3.78391e-014   XYZ
    dof rx rz
    limits (-45.0 45.0)
           (-45.0 45.0)
  end
:hierarchy
  begin
    root lhipjoint rhipjoint lowerback
    lhipjoint lfemur
    lfemur ltibia
    ltibia lfoot
    lfoot ltoes
    rhipjoint rfemur
    rfemur rtibia
    rtibia rfoot
    rfoot rtoes
    lowerback upperback
    upperback thorax
    thorax lowerneck lclavicle rclavicle
    lowerneck upperneck
    upperneck head
    lclavicle lhumerus
    lhumerus lradius
    lradius lwrist
    lwrist lhand lthumb
    lhand lfingers
    rclavicle rhumerus
    rhumerus rradius
    rradius rwrist
    rwrist rhand rthumb
    rhand rfingers
  end

#!OML:ASF F:\Work\Patient Classification 1\justin\Session 1\justin.ASF
:FULLY-SPECIFIED
:DEGREES
2434
root -6.54093 17.8454 11.2401 360.374 -133.153 -361.526
lowerback 13.1731 0.019995 -7.28943
upperback 1.27604 -1.02456 1.78935
thorax -5.88982 -0.346519 6.232
lowerneck -9.42857 -9.12869 -19.7708
upperneck 28.4372 -15.9755 15.5822
head 14.2344 -8.16916 6.88357
rclavicle 4.47266e-016 1.64991e-014
rhumerus -34.376 -3.91957 -83.2111
rradius 39.4123
rwrist -0.220605
rhand -20.6154 15.6461
rfingers 7.12502
rthumb 5.7457 -14.256
lclavicle 4.47266e-016 1.64991e-014
lhumerus -26.9575 2.6283 87.1786
lradius 35.1071
lwrist 4.00378
lhand -17.9629 29.0471
lfingers 7.12502
lthumb 8.30614 58.8638
rfemur -26.1458 -18.4741 15.2098
rtibia 33.5337
rfoot -9.64391 -9.61454
rtoes -12.3797
lfemur 4.49047 6.48345 -19.3965
ltibia 21.3917
lfoot -18.096 3.66664
ltoes -20.4033
2435
root -6.52784 17.8772 11.2163 359.189 -135.112 -358.538
lowerback 12.9002 0.396256 -5.5647
upperback 0.99119 -0.214824 2.41203
thorax -6.17342 0.0370308 5.76815
lowerneck -9.85327 -9.17199 -19.8018
upperneck 28.7145 -16.1125 15.782
head 14.5144 -8.20547 6.94443
rclavicle 5.99833e-014 -2.98177e-015
rhumerus -34.4881 -3.75231 -83.3022
rradius 39.0274
rwrist 0.456856
rhand -21.8512 16.1098
rfingers 7.12502
rthumb 4.55245 -13.8213
lclavicle 5.99833e-014 -2.98177e-015
lhumerus -27.4374 1.36602 87.5935
lradius 36.1095
lwrist 4.87927
lhand -17.9629 30.4783
lfingers 7.12502
lthumb 8.30617 60.295
rfemur -27.556 -15.6036 18.3219
rtibia 32.1399
rfoot -9.60887 -11.2868
rtoes -11.6938
lfemur 3.87867 6.39839 -17.4516
ltibia 20.9289
lfoot -17.7348 5.59194
ltoes -21.2438
2436
root -6.60797 17.8724 11.1213 360.782 -133.601 -361.587
lowerback 13.1296 -0.13909 -7.4361
upperback 1.29833 -1.24881 1.88799
thorax -5.80046 -0.457388 6.46012
lowerneck -10.5861 -9.11247 -20.2964
upperneck 29.2973 -16.0209 16.0777
head 15.0164 -8.17931 7.18691
rclavicle 9.29318e-015 -1.82882e-014
rhumerus -34.5933 -3.50995 -83.3758
rradius 38.6559
rwrist 0.904584
rhand -22.2634 16.0379
rfingers 7.12502
rthumb 4.15441 -13.9013
lclavicle 9.29318e-015 -1.82882e-014
lhumerus -27.7584 0.887532 87.8003
lradius 36.4926
lwrist 5.13163
lhand -17.8875 29.884
lfingers 7.12502
lthumb 8.37891 59.6978
rfemur -26.633 -18.5375 15.8979
rtibia 31.0388
rfoot -9.75161 -10.409
rtoes -11.1344
lfemur 5.20435 6.66096 -19.3332
ltibia 20.2433
lfoot -17.4811 3.98342
ltoes -22.5613
2437
root -6.64026 17.8799 11.0599 360.962 -133.862 -361.641
lowerback 13.1234 -0.219993 -7.43199
upperback 1.35147 -1.35766 1.87204
thorax -5.7227 -0.517736 6.45777
lowerneck -10.2798 -9.34505 -20.0299
upperneck 29.0106 -16.3234 15.745
head 14.8198 -8.31097 6.91823
rclavicle 7.44697e-014 -1.19271e-014
rhumerus -34.6212 -3.65427 -83.4058
rradius 38.47
rwrist 1.02731
rhand -23.0173 17.0158
rfingers 7.12502
rthumb 3.42641 -12.9364
lclavicle 7.44697e-014 -1.19271e-014
lhumerus -27.7016 0.428191 87.9499
lradius 36.4272
lwrist 5.49193
lhand -18.1198 29.3475
lfingers 7.12502
lthumb 8.15469 59.1701
rfemur -26.8907 -18.3639 16.1476
rtibia 29.9674
rfoot -9.81959 -10.8886
rtoes -11.257
lfemur 5.61461 6.77211 -19.2826
ltibia 19.6893
lfoot -17.2258 3.85652
ltoes -21.652
2438
root -6.67507 17.8853 11.0033 361.334 -134.208 -361.967
lowerback 13.0761 -0.294166 -7.60376
upperback 1.36044 -1.48505 1.74339
thorax -5.665 -0.580742 6.43699
lowerneck -10.5958 -9.22639 -19.9187
upperneck 29.1607 -16.1052 15.6864
head 14.8857 -8.19847 6.91672
rclavicle -2.87989e-014 -3.89618e-014
rhumerus -34.4433 -3.4231 -83.5697
rradius 38.0518
rwrist 0.819872
rhand -23.7759 17.4196
rfingers 7.12502
rthumb 2.69383 -12.5431
lclavicle -2.87989e-014 -3.89618e-014
lhumerus -27.759 -0.0543972 88.0188
lradius 36.4506
lwrist 6.00002
lhand -17.8247 28.6998
lfingers 7.12502
lthumb 8.43955 58.5112
rfemur -27.2685 -18.5144 16.3231
rtibia 29.2567
rfoot -10.6236 -11.3873
rtoes -3.61248
lfemur 6.2717 6.59036 -19.5705
ltibia 18.6859
lfoot -16.7665 4.10627
ltoes -20.7856
2439
root -6.70541 17.8881 10.936 361.459 -134.537 -361.951
lowerback 13.0672 -0.405271 -7.59934
upperback 1.28368 -1.63583 1.64683
thorax -5.7201 -0.649364 6.35691
lowerneck -9.70253 -9.19774 -19.6173
upperneck 28.6999 -16.4213 16.023
head 14.5565 -8.33212 6.95508
rclavicle 1.89839e-014 1.13307e-014
rhumerus -33.8739 -2.57422 -83.7798
rradius 37.3263
rwrist -0.312107
rhand -24.0987 17.1535
rfingers 7.12502
rthumb 2.38201 -12.8129
lclavicle 1.89839e-014 1.13307e-014
lhumerus -28.0499 -0.292 87.8486
lradius 36.4175
lwrist 5.96089
lhand -16.0339 25.8992
lfingers 7.12502
lthumb 10.1674 55.6336
rfemur -27.4338 -19.1966 17.1547
rtibia 28.3593
rfoot -10.0918 -11.9606
rtoes -12.47
lfemur 6.63778 6.59561 -19.5218
ltibia 18.2155
lfoot -16.5326 4.52313
ltoes -22.217
